HIERARCHY
ROOT Hips
{
	OFFSET 0.000000 0.000000 0.000000 
	CHANNELS 6 Xposition Yposition Zposition Yrotation Zrotation Xrotation 
	JOINT Lumbar
	{
		OFFSET 0.000000 0.000000 0.000000 
		CHANNELS 3 Zrotation Xrotation Yrotation
		JOINT Neck
		{
			OFFSET 0.000000 0.445665 0.000000 
			CHANNELS 3 Zrotation Xrotation Yrotation
			End Site
			{
				OFFSET 0.000000 0.227535 0.000000 
			}
		}
		JOINT RightShoulder
		{
			OFFSET 0.019635 0.377685 0.194865 
			CHANNELS 3 Zrotation Xrotation Yrotation
			JOINT RightElbow
			{
				OFFSET 0.000000 -0.243375 0.000000 
				CHANNELS 2 Zrotation Yrotation
				JOINT RightWrist
				{
					OFFSET 0.000000 -0.264825 0.000000 
					CHANNELS 2 Zrotation Xrotation
					End Site
					{
						OFFSET 0.006600 -0.176220 0.000990 
					}
				}
			}
		}
		JOINT LeftShoulder
		{
			OFFSET 0.019635 0.377685 -0.194865 
			CHANNELS 3 Zrotation Xrotation Yrotation
			JOINT LeftElbow
			{
				OFFSET 0.000000 -0.243375 0.000000 
				CHANNELS 2 Zrotation Yrotation
				JOINT LeftWrist
				{
					OFFSET 0.000000 -0.264825 0.000000 
					CHANNELS 2 Zrotation Xrotation
					End Site
					{
						OFFSET 0.006600 -0.176220 -0.000990 
					}
				}
			}
		}
	}
	JOINT RightHip
	{
		OFFSET 0.052140 -0.069960 0.075570 
		CHANNELS 3 Zrotation Xrotation Yrotation
		JOINT RightKnee
		{
			OFFSET 0.000000 -0.402270 0.000000 
			CHANNELS 1 Zrotation
			JOINT RightAnkle
			{
				OFFSET 0.000000 -0.404085 0.000000 
				CHANNELS 3 Zrotation Xrotation Yrotation
				End Site
				{
					OFFSET 0.204105 -0.089430 0.008415 
				}
			}
		}
	}
	JOINT LeftHip
	{
		OFFSET 0.052140 -0.069960 -0.075570 
		CHANNELS 3 Zrotation Xrotation Yrotation
		JOINT LeftKnee
		{
			OFFSET 0.000000 -0.402270 0.000000 
			CHANNELS 1 Zrotation
			JOINT LeftAnkle
			{
				OFFSET 0.000000 -0.404085 0.000000 
				CHANNELS 3 Zrotation Xrotation Yrotation
				End Site
				{
					OFFSET 0.204105 -0.089430 -0.008415 
				}
			}
		}
	}
}
MOTION
Frames: 11
Frame Time: 0.02
-0.44735 0.94985 -0.34412 186.31896 0 -1.01645 7.94144 10.06059 -1.88371 -52.75104 -9.27241 -5.4623 51.47986 -7.70827 -6.40983 10.27292 81.07142 -2.51026 -4.47629 115.41311 67.0663 -44.16999 37.06459 -46.90996 -23.47871 -3.45645 -0.5459 8.53962 -9.05191 -9.59158 -7.61203 -2.29009 -9.86586 6.67581 5.82442 2.53324 -14.80046 -7.38896 1.75686 1.3589
-0.44746 0.94945 -0.34644 186.38616 0 -1.07138 7.91899 9.8822 -1.935 -52.80914 -8.78369 -4.57484 51.79819 -8.47206 -5.82299 10.55779 81.16888 -2.57138 -4.63619 111.55386 67.30271 -44.22328 37.97509 -46.11991 -23.63723 -3.6022 -0.55414 8.85869 -7.41663 -9.5389 -7.78764 -2.29568 -11.5246 6.42257 6.01589 2.71175 -14.27042 -7.4556 1.70765 1.14485
-0.4477 0.9491 -0.34872 186.39154 0 -1.11629 7.91698 9.67441 -2.0061 -52.75455 -8.32197 -3.73608 51.93822 -9.11628 -5.14368 10.81906 81.24717 -2.63229 -4.73242 107.60798 67.10329 -44.20368 38.9322 -45.54115 -23.72397 -3.71957 -0.56556 9.20341 -5.27626 -9.48455 -8.02142 -2.29547 -13.6327 6.1218 6.22895 2.77058 -13.69129 -7.51848 1.63505 0.80973
-0.44788 0.94874 -0.351 186.42385 0 -1.16522 7.90456 9.48139 -2.06622 -52.74002 -7.85534 -2.89608 52.14383 -9.78997 -4.50276 11.08462 81.33256 -2.68948 -4.85595 103.72255 67.08493 -44.19921 39.92021 -44.94291 -23.81762 -3.83796 -0.57478 9.52975 -3.42793 -9.43284 -8.22124 -2.28993 -15.4742 5.84664 6.42927 2.88744 -13.14184 -7.58384 1.57511 0.53671
-0.44809 0.94835 -0.35335 186.46006 0 -1.21741 7.89649 9.28185 -2.13389 -52.76494 -7.35235 -1.96257 52.40703 -10.57432 -3.87257 11.38003 81.42515 -2.76306 -4.98897 99.71373 67.13629 -44.26214 40.68643 -44.01659 -24.01317 -4.0089 -0.58593 9.8861 -1.30629 -9.37594 -8.45197 -2.31607 -17.58721 5.55231 6.64424 2.98202 -12.55809 -7.645 1.50577 0.22796
-0.44827 0.94801 -0.35555 186.47251 0 -1.26001 7.88415 9.08916 -2.19045 -52.68431 -6.93388 -1.23844 52.51093 -11.09673 -3.19998 11.6061 81.49796 -2.80214 -5.0856 95.96045 66.93948 -44.17795 41.92823 -43.83822 -23.984 -4.05963 -0.59451 10.18491 0.35771 -9.32786 -8.63273 -2.27739 -19.23273 5.28798 6.83309 3.09663 -12.03688 -7.71381 1.45068 -0.03249
-0.44835 0.94781 -0.35738 186.45079 0 -1.27896 7.85744 8.92224 -2.21661 -52.33421 -6.73833 -1.06882 52.21739 -10.93531 -2.4312 11.65283 81.52197 -2.74851 -5.10341 92.8618 66.16609 -43.61368 44.44916 -45.51792 -23.32598 -3.82362 -0.59241 10.32481 0.69542 -9.31107 -8.65804 -2.0383 -19.54852 5.11193 6.94265 3.30358 -11.68158 -7.81149 1.44208 -0.13451
-0.4484 0.94765 -0.35907 186.40439 0 -1.28837 7.82536 8.76337 -2.23031 -51.88378 -6.62848 -1.11128 51.77089 -10.51166 -1.62402 11.62906 81.52653 -2.65978 -5.08537 90.04086 65.15744 -42.91982 47.45067 -47.96934 -22.44925 -3.46073 -0.58823 10.40471 0.5455 -9.30175 -8.6318 -1.73808 -19.36682 4.96903 7.02515 3.53461 -11.39465 -7.91594 1.44859 -0.18203
-0.44844 0.94747 -0.36082 186.35924 0 -1.30178 7.79421 8.60109 -2.24627 -51.48402 -6.48244 -1.06462 51.39642 -10.20089 -0.83601 11.63314 81.53921 -2.58531 -5.07947 87.14397 64.2561 -42.3469 50.24789 -50.16995 -21.69088 -3.13091 -0.58701 10.50765 0.5753 -9.28432 -8.63126 -1.48121 -19.36342 4.8153 7.12093 3.75045 -11.08891 -8.01307 1.4473 -0.25084
-0.44855 0.94728 -0.36259 186.35484 0 -1.31635 7.77011 8.43666 -2.27649 -51.05898 -6.32501 -0.98786 51.00541 -9.91326 -0.03689 11.65426 81.55416 -2.51755 -5.08892 84.03094 63.33987 -41.51432 52.98985 -51.9622 -20.85187 -2.90358 -0.5775 10.62885 0.79008 -9.28647 -8.62286 -1.15976 -19.56916 4.64222 7.21346 3.97929 -10.72953 -8.128 1.44879 -0.33902
-0.44852 0.94712 -0.36429 186.25941 0 -1.32629 7.72983 8.2791 -2.27475 -50.66403 -6.21209 -1.02487 50.61433 -9.51589 0.74628 11.62324 81.56011 -2.42804 -5.05869 81.43581 62.40193 -41.1867 55.95703 -54.77808 -20.12732 -2.43344 -0.58456 10.69807 0.50919 -9.25002 -8.61821 -0.9567 -19.22575 4.51767 7.3059 4.18912 -10.49893 -8.20743 1.44878 -0.37186
